# xmcd
#
# Track frame offsets: 
#        150
#        21700
#        46002
#        62705
#        85427
#        104364
#        123974
#        143976
#        164175
#        179923
#        200221
#        223158
#
# Disc length: 3270 seconds
#
# Revision: 1
# Processed by: cddbd v1.5.2PL0 Copyright (c) Steve Scherf et al.
# Submitted via: ExactAudioCopyFreeDBPlugin 1.0
#
DISCID=c60cc40c
DTITLE=조규찬 - Remake
DYEAR=2008
DGENRE=Ballad
TTITLE0=날 위한 이별
TTITLE1=나는 외로움 그대는 그리움
TTITLE2=흩어진 나날들
TTITLE3=그리움만 쌓이네
TTITLE4=사랑은 유리같은 것
TTITLE5=찬바람이 불면
TTITLE6=인디언 인형처럼
TTITLE7=청혼
TTITLE8=Happy birthday to you
TTITLE9=널 사랑해
TTITLE10=애인...있어요
TTITLE11=You call it love
EXTD=
EXTT0=
EXTT1=
EXTT2=
EXTT3=
EXTT4=
EXTT5=
EXTT6=
EXTT7=
EXTT8=
EXTT9=
EXTT10=
EXTT11=
PLAYORDER=
